# xmcd
# Copyright (C) 1995-1998 Ti Kan
#
# Track frame offsets:
#       150
#       26161
#       43181
#       64986
#       74010
#       90435
#       110169
#       134142
#       156528
#       179862
#
# Disc length: 2639 seconds
#
# Revision: 0
# Processed by: cddbd v1.5.2PL0 Copyright (c) Steve Scherf et al.
# Submitted via: CD-Import v1.0
#
DISCID=a70a4d0a
DTITLE=Sophia - There Are No Goodbyes
DYEAR=2009
DGENRE=
TTITLE0=There Are No Goodbyes
TTITLE1=A Last Dance (To Sad Eyes)
TTITLE2=Storm Clouds
TTITLE3=Dreaming
TTITLE4=Obvious
TTITLE5=Something
TTITLE6=Signs
TTITLE7=Heartache
TTITLE8=Leaving
TTITLE9=Portugal
EXTD=
EXTT0=
EXTT1=
EXTT2=
EXTT3=
EXTT4=
EXTT5=
EXTT6=
EXTT7=
EXTT8=
EXTT9=
PLAYORDER=
